<svg version="1.2" xmlns="http://www.w3.org/2000/svg" viewBox="0 0 1300 1100" width="1300" height="1100">
	<title>12-Agustus-2020-002-ai</title>
	<style>
		.s0 { fill: #0393ce } 
		.s1 { fill: #85abd2 } 
		.s2 { fill: #0655a3 } 
	</style>
	<g id="Logo">
		<g id="&lt;Group&gt;">
			<g id="&lt;Group&gt;">
			</g>
			<g id="&lt;Group&gt;">
				<g id="&lt;Group&gt;">
					<path id="&lt;Path&gt;" class="s0" d="m559.1 922.6c0 42.4-34.3 76.7-76.7 76.7-42.4 0-76.8-34.3-76.8-76.7 0-42.4 34.4-76.7 76.8-76.7 42.4 0 76.7 34.3 76.7 76.7z"/>
				</g>
				<g id="&lt;Group&gt;">
					<path id="&lt;Path&gt;" class="s0" d="m867.8 921.5c0 42.3-34.3 76.7-76.7 76.7-42.4 0-76.7-34.4-76.7-76.7 0-42.4 34.3-76.8 76.7-76.8 42.4 0 76.7 34.4 76.7 76.8z"/>
				</g>
				<g id="&lt;Group&gt;">
					<path id="&lt;Path&gt;" class="s1" d="m640.3 135.2c15.4 0 26.5 0 47 0 0 1 0 47 0 46.1 0 13-10.7 23.7-23.7 23.7-15.5 0-26.6 0-47.1 0 0-0.9 0-47 0-46 0-13.1 10.7-23.8 23.8-23.8z"/>
				</g>
				<g id="&lt;Group&gt;">
					<path id="&lt;Path&gt;" class="s1" d="m733.5 205c30.1 0 51.6 0 91.5 0 0 1.9 0 91.4 0 89.5 0 25.4-20.8 46.2-46.2 46.2-30 0-51.5 0-91.5 0 0-1.9 0-91.4 0-89.5 0-25.4 20.8-46.2 46.2-46.2z"/>
				</g>
				<g id="&lt;Group&gt;">
					<path id="&lt;Path&gt;" class="s0" d="m547.2 255.6c30.1 0 51.6 0 91.5 0 0 1.9 0 91.4 0 89.5 0 25.4-20.8 46.2-46.2 46.2-30 0-51.5 0-91.5 0 0-1.8 0-91.3 0-89.5 0-25.4 20.8-46.2 46.2-46.2z"/>
				</g>
				<path id="&lt;Path&gt;" class="s0" d="m738.7 777c-243.8 81.9-509.6-45.8-574.8-241.2-2.3-7.4-4.5-15.2-6.4-22.5 76 180.4 316.6 262.7 551.8 184.3 234-77.9 376.9-287.6 330.8-476.8 2.6 6.5 5.1 13 7.6 20 65.2 195.3-64.9 454.9-309 536.2z"/>
				<path id="&lt;Path&gt;" class="s2" d="m175 344.7c0-25.7 20.9-46.5 46.6-46.5h93.1c19.5 0 36.8 12 43.6 30.2l41.1 109.5h495.9c31.8 0 54.5 28.7 49.4 58.7-57.1 74.6-142.4 136.8-246.2 171.3-56.7 19-114.6 28.5-172 28.5-48.8 0-94.9-7.8-137.5-21l-106.5-284.1h-60.9c-25.7 0-46.6-20.8-46.6-46.6z"/>
			</g>
		</g>
	</g>
</svg>
